<?xml version="1.0" encoding="utf-8"?>
<!-- Generator: Adobe Illustrator 25.4.1, SVG Export Plug-In . SVG Version: 6.00 Build 0)  -->
<svg version="1.1" id="Camada_1" xmlns="http://www.w3.org/2000/svg" xmlns:xlink="http://www.w3.org/1999/xlink" x="0px" y="0px"
	 viewBox="0 0 104.4 36" style="enable-background:new 0 0 104.4 36;" xml:space="preserve">
<style type="text/css">
	.st0{fill:none;stroke:#000000;stroke-miterlimit:10;}
	.st1{fill:#050505;}
	.st2{fill:url(#SVGID_1_);}
	.st3{fill:url(#SVGID_00000165209919825476976740000010040415476207567522_);}
	.st4{fill:url(#SVGID_00000011028670354873645070000018115491802002802305_);}
	.st5{fill:url(#SVGID_00000025410444794514644290000011238104923657662374_);}
</style>
<g>
	<g>
		<path class="st1" d="M26.8,24.1c-0.6,1.3-0.8,1.8-1.5,2.9c-1,1.5-2.4,3.5-4.2,3.5c-1.6,0-2-1-4.1-1c-2.1,0-2.5,1-4.1,1
			c-1.7,0-3.1-1.8-4.1-3.3C6,22.9,5.7,17.8,7.5,15.1c1.2-1.9,3.2-3,5-3c1.9,0,3,1,4.5,1c1.5,0,2.4-1,4.5-1c1.6,0,3.3,0.9,4.6,2.4
			C22.1,16.7,22.7,22.6,26.8,24.1z"/>
		<path class="st1" d="M19.9,10.4c0.8-1,1.4-2.4,1.2-3.9c-1.3,0.1-2.8,0.9-3.6,2c-0.8,1-1.4,2.4-1.2,3.8
			C17.6,12.3,19.1,11.4,19.9,10.4z"/>
		<path class="st1" d="M35.3,15.1l-4,12h1.8l1.2-3.7h3.9l1.2,3.7h1.9l-4-12H35.3z M36.3,17c0.1,0.5,0.3,1.1,0.5,1.7l1.1,3.2h-3.1
			l1.1-3.2C36,18.2,36.1,17.6,36.3,17z"/>
		<path class="st1" d="M46.5,18.2c-1.2,0-2.2,0.5-2.8,1.4l-0.1-1.2H42l0,0.2c0,0.7,0.1,1.6,0.1,2.7v9.2h1.8v-4.3
			c0.6,0.7,1.4,1.1,2.4,1.1c1,0,2-0.4,2.7-1.2c0.8-0.8,1.2-2,1.2-3.5c0-1.3-0.4-2.4-1-3.2C48.5,18.6,47.6,18.2,46.5,18.2z
			 M46.1,19.7c1.6,0,2.3,1.5,2.3,3c0,1.9-0.9,3.1-2.4,3.1c-1,0-1.9-0.7-2.1-1.7c0-0.2-0.1-0.4-0.1-0.6V22c0-0.1,0-0.3,0.1-0.4
			c0,0,0-0.1,0-0.1C44.2,20.4,45.1,19.7,46.1,19.7z"/>
		<path class="st1" d="M55.7,18.2c-1.2,0-2.2,0.5-2.8,1.4l-0.1-1.2h-1.6l0,0.2c0,0.7,0.1,1.6,0.1,2.7v9.2H53v-4.3
			c0.6,0.7,1.4,1.1,2.4,1.1c1,0,2-0.4,2.7-1.2c0.8-0.8,1.2-2,1.2-3.5c0-1.3-0.4-2.4-1-3.2C57.7,18.6,56.7,18.2,55.7,18.2z
			 M55.3,19.7c1.6,0,2.3,1.5,2.3,3c0,1.9-0.9,3.1-2.4,3.1c-1,0-1.9-0.7-2.1-1.7c0-0.2-0.1-0.4-0.1-0.6V22c0-0.1,0-0.3,0.1-0.4
			c0,0,0-0.1,0-0.1C53.4,20.4,54.3,19.7,55.3,19.7z"/>
		<path class="st1" d="M67.2,20.1C65.6,19.5,65,19,65,18c0-0.8,0.6-1.6,2-1.6c1.2,0,1.9,0.4,2.1,0.5l0.2,0.1l0.5-1.5l-0.1-0.1
			c-0.3-0.2-1.2-0.6-2.6-0.6c-2.3,0-3.9,1.4-3.9,3.3c0,1.6,1,2.7,3.1,3.5c1.5,0.6,2.1,1.2,2.1,2.2c0,1.1-0.9,1.9-2.3,1.9
			c-0.9,0-1.9-0.3-2.6-0.7l-0.2-0.1L63,26.4l0.1,0.1c0.7,0.5,1.9,0.8,3,0.8c3.1,0,4.2-1.9,4.2-3.5C70.3,22,69.4,21,67.2,20.1z"/>
		<path class="st1" d="M73.5,16.3l-1.8,0.6v1.5h-1.3v1.4h1.3v4.4c0,1.1,0.2,1.8,0.6,2.3c0.4,0.4,1,0.7,1.7,0.7
			c0.7,0,1.2-0.1,1.4-0.2l0.1,0l-0.1-1.5l-0.2,0.1c-0.2,0.1-0.5,0.1-0.8,0.1c-0.7,0-1-0.4-1-1.5v-4.4h2.2v-1.4h-2.2V16.3z"/>
		<path class="st1" d="M80.1,18.2c-2.5,0-4.2,1.9-4.2,4.6c0,2.6,1.7,4.5,4.1,4.5h0c2,0,4.2-1.4,4.2-4.6c0-1.3-0.4-2.4-1.1-3.2
			C82.3,18.6,81.3,18.2,80.1,18.2z M80,19.6c1.6,0,2.3,1.6,2.3,3.1c0,1.8-1,3.1-2.4,3.1h0c-1.4,0-2.3-1.3-2.3-3.1
			C77.6,21.2,78.3,19.6,80,19.6z"/>
		<path class="st1" d="M89.6,18.2l-0.1,0c-0.2,0-0.3-0.1-0.4-0.1c-0.9,0-1.8,0.6-2.2,1.5l-0.1-1.3h-1.6l0,0.2c0,0.7,0.1,1.5,0.1,2.6
			l0,5.9H87v-4.6c0-0.3,0-0.5,0-0.7c0.2-1.1,0.9-1.8,1.9-1.8c0.2,0,0.3,0,0.5,0l0.2,0V18.2z"/>
		<path class="st1" d="M93.7,18.1c-2.4,0-4,1.9-4,4.7c0,2.7,1.7,4.4,4.2,4.4c1.3,0,2.3-0.3,2.8-0.6l0.1,0l-0.3-1.4l-0.1,0.1
			c-0.5,0.2-1.1,0.4-2.2,0.4c-0.8,0-2.6-0.3-2.7-2.6l5.8,0l0-0.1c0-0.2,0.1-0.4,0.1-0.8C97.2,20.4,96.3,18.1,93.7,18.1z M93.5,19.5
			c0.5,0,1,0.2,1.3,0.5c0.5,0.5,0.6,1.3,0.6,1.7h-4.1C91.6,20.7,92.2,19.5,93.5,19.5z"/>
		<g>
			<path d="M31.4,7c0.4-0.1,1-0.1,1.5-0.1c1,0,1.8,0.2,2.2,0.7c0.5,0.5,0.8,1.1,0.8,2c0,0.9-0.3,1.6-0.8,2.2
				c-0.5,0.5-1.4,0.8-2.4,0.8c-0.5,0-0.9,0-1.3-0.1V7z M32.1,11.9c0.2,0,0.4,0,0.7,0c1.5,0,2.4-0.9,2.4-2.3c0-1.3-0.7-2.1-2.2-2.1
				c-0.4,0-0.6,0-0.8,0.1V11.9z"/>
			<path d="M37.6,7.4c0,0.2-0.2,0.4-0.5,0.4c-0.3,0-0.4-0.2-0.4-0.4c0-0.3,0.2-0.5,0.5-0.5C37.4,7,37.6,7.2,37.6,7.4z M36.8,12.5v-4
				h0.7v4H36.8z"/>
			<path d="M38.6,11.8c0.2,0.1,0.6,0.3,1,0.3c0.5,0,0.8-0.3,0.8-0.6c0-0.3-0.2-0.5-0.7-0.7c-0.7-0.3-1.1-0.6-1.1-1.1
				c0-0.6,0.5-1.2,1.4-1.2c0.4,0,0.8,0.1,1,0.2l-0.2,0.5C40.6,9.1,40.3,9,39.9,9c-0.4,0-0.7,0.2-0.7,0.5c0,0.3,0.2,0.5,0.8,0.7
				c0.7,0.3,1,0.6,1,1.2c0,0.7-0.5,1.2-1.5,1.2c-0.4,0-0.8-0.1-1.1-0.3L38.6,11.8z"/>
			<path d="M42,9.8c0-0.5,0-0.9,0-1.3h0.6l0,0.7h0c0.3-0.5,0.8-0.8,1.4-0.8c1,0,1.7,0.8,1.7,2c0,1.4-0.9,2.1-1.8,2.1
				c-0.5,0-1-0.2-1.2-0.6h0v2.2H42V9.8z M42.7,10.9c0,0.1,0,0.2,0,0.3c0.1,0.5,0.6,0.8,1.1,0.8c0.8,0,1.2-0.6,1.2-1.5
				C45,9.7,44.6,9,43.8,9c-0.5,0-1,0.4-1.1,0.9c0,0.1,0,0.2,0,0.3V10.9z"/>
			<path d="M50.3,10.5c0,1.5-1,2.1-2,2.1c-1.1,0-1.9-0.8-1.9-2c0-1.3,0.9-2.1,2-2.1C49.5,8.4,50.3,9.3,50.3,10.5z M47.1,10.5
				c0,0.9,0.5,1.5,1.2,1.5c0.7,0,1.2-0.6,1.2-1.5c0-0.7-0.3-1.5-1.2-1.5C47.5,9,47.1,9.8,47.1,10.5z"/>
			<path d="M51.2,9.6c0-0.4,0-0.7,0-1.1h0.6l0,0.7h0c0.2-0.4,0.7-0.7,1.3-0.7c0.6,0,1.4,0.3,1.4,1.7v2.4h-0.7v-2.3
				c0-0.6-0.2-1.2-0.9-1.2c-0.5,0-0.8,0.3-1,0.7c0,0.1,0,0.2,0,0.3v2.4h-0.7V9.6z"/>
			<path d="M57.2,6.8l-1,1.2h-0.5l0.7-1.2H57.2z M55.7,12.5v-4h0.7v4H55.7z"/>
			<path d="M57.9,8.5l0.8,2.2c0.1,0.4,0.2,0.7,0.3,1h0c0.1-0.3,0.2-0.7,0.3-1l0.8-2.2h0.8l-1.6,4h-0.7l-1.5-4H57.9z"/>
			<path d="M61.9,10.7c0,1,0.6,1.4,1.4,1.4c0.5,0,0.8-0.1,1.1-0.2l0.1,0.5c-0.3,0.1-0.7,0.2-1.3,0.2c-1.2,0-2-0.8-2-2
				c0-1.2,0.7-2.1,1.9-2.1c1.3,0,1.6,1.1,1.6,1.9c0,0.1,0,0.3,0,0.3H61.9z M64,10.1C64,9.7,63.8,9,63,9c-0.7,0-1.1,0.7-1.1,1.2H64z"
				/>
			<path d="M65.6,6.7h0.7v5.8h-0.7V6.7z"/>
			<path d="M69.3,9.6c0-0.4,0-0.7,0-1.1h0.6l0,0.7h0c0.2-0.4,0.7-0.7,1.3-0.7c0.5,0,1.4,0.3,1.4,1.7v2.4H72v-2.3
				C72,9.6,71.7,9,71.1,9c-0.5,0-0.8,0.3-1,0.7c0,0.1,0,0.2,0,0.3v2.4h-0.7V9.6z"/>
			<path d="M76.1,12.5L76,12h0c-0.2,0.3-0.6,0.6-1.2,0.6c-0.8,0-1.2-0.6-1.2-1.1c0-1,0.9-1.5,2.4-1.5V9.9C76,9.6,75.9,9,75,9
				c-0.4,0-0.8,0.1-1,0.3l-0.2-0.5c0.3-0.2,0.8-0.4,1.3-0.4c1.2,0,1.5,0.8,1.5,1.6v1.5c0,0.3,0,0.7,0.1,1H76.1z M76,10.5
				c-0.8,0-1.7,0.1-1.7,0.9c0,0.5,0.3,0.7,0.7,0.7c0.5,0,0.8-0.3,1-0.7c0-0.1,0-0.2,0-0.2V10.5z"/>
		</g>
	</g>
	<path class="st0" d="M99.7,35.2H4.7c-2,0-3.6-1.6-3.6-3.6V4.4c0-2,1.6-3.6,3.6-3.6h95.1c2,0,3.6,1.6,3.6,3.6v27.1
		C103.4,33.6,101.7,35.2,99.7,35.2z"/>
</g>
</svg>
