<?xml version="1.0" encoding="utf-8"?>
<!-- Generator: Adobe Illustrator 25.4.1, SVG Export Plug-In . SVG Version: 6.00 Build 0)  -->
<svg version="1.1" id="Camada_1" xmlns="http://www.w3.org/2000/svg" xmlns:xlink="http://www.w3.org/1999/xlink" x="0px" y="0px"
	 viewBox="0 0 104.4 36" style="enable-background:new 0 0 104.4 36;" xml:space="preserve">
<style type="text/css">
	.st0{fill:none;stroke:#000000;stroke-miterlimit:10;}
	.st1{fill:#050505;}
	.st2{fill:url(#SVGID_1_);}
	.st3{fill:url(#SVGID_00000176744376507004489790000014482924317869619602_);}
	.st4{fill:url(#SVGID_00000000905166170927952580000018277137731676886176_);}
	.st5{fill:url(#SVGID_00000023993532461272304080000012298225794824742814_);}
</style>
<path class="st0" d="M99.7,35.4H4.6c-2,0-3.6-1.6-3.6-3.6V4.6C1,2.6,2.6,1,4.6,1h95.1c2,0,3.6,1.6,3.6,3.6v27.1
	C103.3,33.8,101.7,35.4,99.7,35.4z"/>
<linearGradient id="SVGID_1_" gradientUnits="userSpaceOnUse" x1="13.8778" y1="-68.4565" x2="13.8778" y2="-91.2091" gradientTransform="matrix(1 0 0 -1 0 -61.3051)">
	<stop  offset="0" style="stop-color:#257CB0"/>
	<stop  offset="0.2863" style="stop-color:#4A93B5"/>
	<stop  offset="0.767" style="stop-color:#78BCBB"/>
	<stop  offset="1" style="stop-color:#89CFBD"/>
</linearGradient>
<path class="st2" d="M8.2,7.2v11.4v11.4l11.3-11.4L8.2,7.2z"/>
<linearGradient id="SVGID_00000060745568439157423920000003765607605805521034_" gradientUnits="userSpaceOnUse" x1="8.226" y1="-74.1057" x2="22.5642" y2="-74.1057" gradientTransform="matrix(1 0 0 -1 0 -61.3051)">
	<stop  offset="0" style="stop-color:#52C1AD"/>
	<stop  offset="1" style="stop-color:#DEE89A"/>
</linearGradient>
<path style="fill:url(#SVGID_00000060745568439157423920000003765607605805521034_);" d="M22.6,15.5L18,12.8L8.2,7.1v0.1l11.3,11.4
	L22.6,15.5z"/>
<linearGradient id="SVGID_00000175282099510975397400000010105720505881412482_" gradientUnits="userSpaceOnUse" x1="15.3951" y1="-79.8352" x2="15.3951" y2="-91.2959" gradientTransform="matrix(1 0 0 -1 0 -61.3051)">
	<stop  offset="0" style="stop-color:#EC413D"/>
	<stop  offset="0.1668" style="stop-color:#DA4452"/>
	<stop  offset="0.5748" style="stop-color:#B0487A"/>
	<stop  offset="0.8619" style="stop-color:#954A92"/>
	<stop  offset="1" style="stop-color:#8A4A9D"/>
</linearGradient>
<path style="fill:url(#SVGID_00000175282099510975397400000010105720505881412482_);" d="M8.2,29.9L8.2,29.9l9.8-5.6l4.6-2.7l-3-3.1
	L8.2,29.9z"/>
<linearGradient id="SVGID_00000170990967396462979020000011000443601144311724_" gradientUnits="userSpaceOnUse" x1="23.6544" y1="-76.785" x2="23.6544" y2="-82.8959" gradientTransform="matrix(1 0 0 -1 0 -61.3051)">
	<stop  offset="0" style="stop-color:#F58879"/>
	<stop  offset="0.1194" style="stop-color:#F69079"/>
	<stop  offset="0.7128" style="stop-color:#FCB877"/>
	<stop  offset="1" style="stop-color:#FEC874"/>
</linearGradient>
<path style="fill:url(#SVGID_00000170990967396462979020000011000443601144311724_);" d="M22.6,15.5l-3,3.1l3,3.1l5.2-3.1L22.6,15.5
	z"/>
<g>
	<path class="st1" d="M79.4,26.3c-0.4,0-0.8-0.1-1.2-0.2c-0.4-0.2-0.6-0.4-0.9-0.7h-0.1c0,0.4,0.1,0.8,0.1,1.1v2.7h-1v-9.6h0.8
		l0.1,0.9h0c0.3-0.4,0.6-0.6,0.9-0.8c0.3-0.2,0.7-0.2,1.2-0.2c0.9,0,1.5,0.3,2,0.9c0.5,0.6,0.7,1.4,0.7,2.5c0,1.1-0.2,1.9-0.7,2.5
		C80.9,26,80.2,26.3,79.4,26.3z M79.2,20.3c-0.7,0-1.1,0.2-1.4,0.6c-0.3,0.4-0.5,1-0.5,1.8v0.2c0,0.9,0.2,1.6,0.5,2
		c0.3,0.4,0.8,0.6,1.5,0.6c0.6,0,1-0.2,1.3-0.7c0.3-0.5,0.5-1.1,0.5-1.9c0-0.8-0.2-1.5-0.5-1.9C80.3,20.5,79.8,20.3,79.2,20.3z"/>
	<path class="st1" d="M84.4,26.1h-1v-9.4h1V26.1z"/>
	<path class="st1" d="M90.1,26.1l-0.2-0.9h0c-0.3,0.4-0.6,0.7-1,0.8c-0.3,0.1-0.7,0.2-1.2,0.2c-0.6,0-1.2-0.2-1.5-0.5
		c-0.4-0.3-0.5-0.8-0.5-1.4c0-1.3,1.1-2,3.2-2.1l1.1,0v-0.4c0-0.5-0.1-0.9-0.3-1.2c-0.2-0.2-0.6-0.4-1.1-0.4c-0.5,0-1.2,0.2-1.8,0.5
		L86.3,20c0.3-0.2,0.7-0.3,1.1-0.4c0.4-0.1,0.8-0.2,1.2-0.2c0.8,0,1.4,0.2,1.7,0.5c0.4,0.3,0.6,0.9,0.6,1.7v4.5L90.1,26.1L90.1,26.1
		z M87.8,25.4c0.6,0,1.1-0.2,1.4-0.5c0.4-0.3,0.5-0.8,0.5-1.4v-0.6l-1,0c-0.8,0-1.4,0.2-1.7,0.4c-0.3,0.2-0.5,0.6-0.5,1
		c0,0.4,0.1,0.6,0.3,0.8C87.1,25.3,87.4,25.4,87.8,25.4z"/>
	<path class="st1" d="M91.4,19.5h1.1l1.4,3.8c0.3,0.9,0.5,1.5,0.6,1.9h0c0.1-0.2,0.2-0.6,0.3-1.1c0.2-0.5,0.7-2,1.6-4.6h1.1
		l-2.8,7.5c-0.3,0.7-0.6,1.3-1,1.6c-0.4,0.3-0.8,0.5-1.4,0.5c-0.3,0-0.6,0-0.9-0.1v-0.8c0.2,0,0.5,0.1,0.7,0.1
		c0.7,0,1.2-0.4,1.5-1.2l0.4-0.9L91.4,19.5z"/>
	<path class="st1" d="M61.1,20.1c0.3,0.3,1,0.8,1,1.9c0,1-0.6,1.5-1.1,2c-0.2,0.2-0.4,0.4-0.4,0.7c0,0.3,0.2,0.5,0.4,0.6l0.5,0.4
		c0.6,0.5,1.1,1,1.1,1.9c0,1.3-1.2,2.6-3.6,2.6c-2,0-2.9-1-2.9-2c0-0.5,0.2-1.2,1.1-1.7c0.8-0.5,2-0.6,2.6-0.6
		c-0.2-0.2-0.4-0.5-0.4-0.9c0-0.2,0.1-0.4,0.1-0.5c-0.2,0-0.3,0-0.4,0c-1.4,0-2.3-1.1-2.3-2.2c0-0.6,0.3-1.3,0.9-1.9
		c0.8-0.7,1.7-0.8,2.4-0.8h2.8l-0.9,0.5H61.1z M60.1,26.3c-0.1,0-0.2,0-0.3,0c-0.1,0-0.9,0-1.4,0.2c-0.3,0.1-1.2,0.4-1.2,1.4
		c0,1,0.9,1.7,2.4,1.7c1.3,0,2-0.6,2-1.5C61.6,27.4,61.2,27,60.1,26.3z M60.5,23.6c0.3-0.3,0.3-0.8,0.3-1c0-1-0.6-2.5-1.7-2.5
		c-0.4,0-0.7,0.2-1,0.5c-0.2,0.3-0.3,0.7-0.3,1c0,0.9,0.5,2.5,1.7,2.5C59.9,24,60.3,23.9,60.5,23.6z"/>
	<path class="st1" d="M52.5,26.1c-2.2,0-3.3-1.7-3.3-3.3c0-1.8,1.5-3.4,3.5-3.4c2,0,3.3,1.6,3.3,3.3C56,24.3,54.7,26.1,52.5,26.1z
		 M54.2,24.9c0.3-0.4,0.4-1,0.4-1.5c0-1.2-0.6-3.5-2.3-3.5c-0.4,0-0.9,0.2-1.2,0.5c-0.5,0.5-0.6,1.1-0.6,1.7c0,1.4,0.7,3.6,2.3,3.6
		C53.4,25.6,53.9,25.4,54.2,24.9z"/>
	<path class="st1" d="M45.1,26.1c-2.2,0-3.3-1.7-3.3-3.3c0-1.8,1.5-3.4,3.5-3.4c2,0,3.3,1.6,3.3,3.3C48.6,24.3,47.4,26.1,45.1,26.1z
		 M46.8,24.9c0.3-0.4,0.4-1,0.4-1.5c0-1.2-0.6-3.5-2.3-3.5c-0.4,0-0.9,0.2-1.2,0.5c-0.5,0.5-0.6,1.1-0.6,1.7c0,1.4,0.7,3.6,2.3,3.6
		C46,25.6,46.5,25.4,46.8,24.9z"/>
	<path class="st1" d="M40.8,25.8l-2,0.5c-0.8,0.1-1.5,0.2-2.3,0.2c-3.8,0-5.2-2.8-5.2-5c0-2.7,2-5.2,5.5-5.2c0.7,0,1.5,0.1,2.1,0.3
		c1,0.3,1.5,0.7,1.8,0.9l-1.1,1.1l-0.5,0.1l0.3-0.6c-0.5-0.5-1.3-1.3-2.9-1.3c-2.2,0-3.8,1.7-3.8,4.1c0,2.6,1.9,5.1,4.8,5.1
		c0.9,0,1.3-0.2,1.7-0.3v-2.2l-2.1,0.1l1.1-0.6h2.9l-0.4,0.3c-0.1,0.1-0.1,0.1-0.1,0.2c0,0.1,0,0.5,0,0.7L40.8,25.8L40.8,25.8z"/>
	<path class="st1" d="M65.4,25.4c-0.5,0-0.5-0.1-0.5-0.7v-0.2v-7.7c0,0,0-0.1,0-0.1c0.1-0.5,0.2-0.6,0.6-0.8h-2l-1,0.5h1v0v0v8.1
		v0.5c0,0.3-0.1,0.3-0.4,0.7h2.4l0.5-0.3C65.9,25.5,65.7,25.5,65.4,25.4z"/>
	<path class="st1" d="M71,25.6c-0.1,0.1-0.3,0.2-0.4,0.2c-0.4,0.2-0.9,0.3-1.3,0.3c-0.4,0-1.1,0-1.8-0.5c-1-0.7-1.4-1.9-1.4-2.9
		c0-2.1,1.7-3.2,3.1-3.2c0.5,0,1,0.1,1.4,0.4c0.7,0.5,0.9,1,0.9,1.4l-3.2,1.3l-1,0.1c0.3,1.8,1.5,2.8,2.8,2.8c0.7,0,1.2-0.2,1.7-0.5
		L71,25.6z M69.7,21.5c0.3-0.1,0.4-0.2,0.4-0.4c0-0.6-0.6-1.2-1.3-1.2c-0.5,0-1.6,0.4-1.6,1.9c0,0.2,0,0.5,0,0.7L69.7,21.5z"/>
	<path class="st1" d="M72.3,19.5v0.9h-0.1v-0.9h-0.3v-0.1h0.7v0.1H72.3z"/>
	<path class="st1" d="M73.5,20.4v-0.9h0l-0.3,0.9h-0.1l-0.3-0.9h0v0.9h-0.1v-1h0.2l0.3,0.8h0l0.2-0.8h0.2L73.5,20.4L73.5,20.4z"/>
	<g>
		<path d="M32,8.3c0.4-0.1,1-0.1,1.5-0.1c1,0,1.8,0.2,2.2,0.7c0.5,0.5,0.8,1.1,0.8,2c0,0.9-0.3,1.6-0.8,2.2
			c-0.5,0.5-1.4,0.8-2.4,0.8c-0.5,0-0.9,0-1.3-0.1V8.3z M32.7,13.2c0.2,0,0.4,0,0.7,0c1.5,0,2.4-0.9,2.4-2.3c0-1.3-0.7-2.1-2.2-2.1
			c-0.4,0-0.6,0-0.8,0.1V13.2z"/>
		<path d="M38.2,8.7c0,0.2-0.2,0.4-0.5,0.4c-0.3,0-0.4-0.2-0.4-0.4c0-0.3,0.2-0.5,0.5-0.5C38.1,8.2,38.2,8.4,38.2,8.7z M37.4,13.8
			v-4h0.7v4H37.4z"/>
		<path d="M39.2,13c0.2,0.1,0.6,0.3,1,0.3c0.5,0,0.8-0.3,0.8-0.6c0-0.3-0.2-0.5-0.7-0.7c-0.7-0.3-1.1-0.6-1.1-1.1
			c0-0.6,0.5-1.2,1.4-1.2c0.4,0,0.8,0.1,1,0.2l-0.2,0.5c-0.2-0.1-0.4-0.2-0.8-0.2c-0.4,0-0.7,0.2-0.7,0.5c0,0.3,0.2,0.5,0.8,0.7
			c0.7,0.3,1,0.6,1,1.2c0,0.7-0.5,1.2-1.5,1.2c-0.4,0-0.8-0.1-1.1-0.3L39.2,13z"/>
		<path d="M42.6,11.1c0-0.5,0-0.9,0-1.3h0.6l0,0.7h0c0.3-0.5,0.8-0.8,1.4-0.8c1,0,1.7,0.8,1.7,2c0,1.4-0.9,2.1-1.8,2.1
			c-0.5,0-1-0.2-1.2-0.6h0v2.2h-0.7V11.1z M43.3,12.1c0,0.1,0,0.2,0,0.3c0.1,0.5,0.6,0.8,1.1,0.8c0.8,0,1.2-0.6,1.2-1.5
			c0-0.8-0.4-1.5-1.2-1.5c-0.5,0-1,0.4-1.1,0.9c0,0.1,0,0.2,0,0.3V12.1z"/>
		<path d="M50.9,11.7c0,1.5-1,2.1-2,2.1c-1.1,0-1.9-0.8-1.9-2c0-1.3,0.9-2.1,2-2.1C50.1,9.7,50.9,10.5,50.9,11.7z M47.7,11.8
			c0,0.9,0.5,1.5,1.2,1.5c0.7,0,1.2-0.6,1.2-1.5c0-0.7-0.3-1.5-1.2-1.5C48.1,10.2,47.7,11,47.7,11.8z"/>
		<path d="M51.8,10.9c0-0.4,0-0.7,0-1.1h0.6l0,0.7h0c0.2-0.4,0.7-0.7,1.3-0.7c0.6,0,1.4,0.3,1.4,1.7v2.4h-0.7v-2.3
			c0-0.6-0.2-1.2-0.9-1.2c-0.5,0-0.8,0.3-1,0.7c0,0.1,0,0.2,0,0.3v2.4h-0.7V10.9z"/>
		<path d="M57.8,8.1l-1,1.2h-0.5L57,8.1H57.8z M56.3,13.8v-4h0.7v4H56.3z"/>
		<path d="M58.5,9.8l0.8,2.2c0.1,0.4,0.2,0.7,0.3,1h0c0.1-0.3,0.2-0.7,0.3-1l0.8-2.2h0.8l-1.6,4h-0.7l-1.5-4H58.5z"/>
		<path d="M62.5,11.9c0,1,0.6,1.4,1.4,1.4c0.5,0,0.8-0.1,1.1-0.2l0.1,0.5c-0.3,0.1-0.7,0.2-1.3,0.2c-1.2,0-2-0.8-2-2
			c0-1.2,0.7-2.1,1.9-2.1c1.3,0,1.6,1.1,1.6,1.9c0,0.1,0,0.3,0,0.3H62.5z M64.7,11.4c0-0.5-0.2-1.2-1-1.2c-0.7,0-1.1,0.7-1.1,1.2
			H64.7z"/>
		<path d="M66.3,7.9H67v5.8h-0.7V7.9z"/>
		<path d="M69.9,10.9c0-0.4,0-0.7,0-1.1h0.6l0,0.7h0c0.2-0.4,0.7-0.7,1.3-0.7c0.5,0,1.4,0.3,1.4,1.7v2.4h-0.7v-2.3
			c0-0.6-0.2-1.2-0.9-1.2c-0.5,0-0.8,0.3-1,0.7c0,0.1,0,0.2,0,0.3v2.4h-0.7V10.9z"/>
		<path d="M76.7,13.8l-0.1-0.5h0c-0.2,0.3-0.6,0.6-1.2,0.6c-0.8,0-1.2-0.6-1.2-1.1c0-1,0.9-1.5,2.4-1.5v-0.1c0-0.3-0.1-0.9-0.9-0.9
			c-0.4,0-0.8,0.1-1,0.3L74.5,10c0.3-0.2,0.8-0.4,1.3-0.4c1.2,0,1.5,0.8,1.5,1.6v1.5c0,0.3,0,0.7,0.1,1H76.7z M76.6,11.7
			c-0.8,0-1.7,0.1-1.7,0.9c0,0.5,0.3,0.7,0.7,0.7c0.5,0,0.8-0.3,1-0.7c0-0.1,0-0.2,0-0.2V11.7z"/>
	</g>
</g>
</svg>
