<?xml version="1.0" encoding="utf-8"?>
<!-- Generator: Adobe Illustrator 25.4.1, SVG Export Plug-In . SVG Version: 6.00 Build 0)  -->
<svg version="1.1" id="Layer_1" xmlns="http://www.w3.org/2000/svg" xmlns:xlink="http://www.w3.org/1999/xlink" x="0px" y="0px"
	 viewBox="0 0 273.8 91.7" style="enable-background:new 0 0 273.8 91.7;" xml:space="preserve">
<style type="text/css">
	.st0{fill:#F6F6F6;}
	.st1{fill:#C6C6C6;}
	.st2{fill:url(#SVGID_1_);}
	.st3{fill:none;}
	.st4{fill:url(#SVGID_00000011016381200399658970000009212333511543828369_);}
	.st5{fill:url(#SVGID_00000096743860219266517210000017479581658848623801_);}
	.st6{fill:url(#SVGID_00000034771776929445784510000008684271500305214121_);}
	.st7{fill:url(#SVGID_00000086692549073509661620000006526467960429030068_);}
	.st8{fill:url(#SVGID_00000165941185823633263700000002253386244445685432_);}
	.st9{fill:#27348B;}
	.st10{fill:#009FE3;}
	.st11{fill:url(#SVGID_00000111158559129296209090000004423804984287046328_);}
	.st12{fill:url(#SVGID_00000170255113202113183490000001627312806427777954_);}
	.st13{fill:#FFFFFF;}
	.st14{fill:url(#SVGID_00000137132884648519039970000009315549685233509519_);}
	.st15{fill:url(#SVGID_00000100366937551154531890000002400429984648320388_);}
	.st16{fill:url(#SVGID_00000141453594452156114840000010896283780121828759_);}
	.st17{fill:url(#SVGID_00000047052550742445029970000015766784753756849559_);}
	.st18{fill:url(#SVGID_00000061458372913143165740000015547232464060666025_);}
	.st19{fill:url(#SVGID_00000036929647427699543290000006888622318960855988_);}
	.st20{fill:url(#SVGID_00000052081242537275464320000018193605912970835871_);}
	.st21{fill:url(#SVGID_00000076573614974445248420000017210470263466335933_);}
	.st22{fill:url(#SVGID_00000084490789458744833390000012515134791073928345_);}
	.st23{fill:url(#SVGID_00000093877433345511898130000001647533106814893482_);}
	.st24{fill:url(#SVGID_00000162324897043278210160000015256426369029702529_);}
	.st25{fill:url(#SVGID_00000076569344449853328300000006243154701945401003_);}
	.st26{fill:none;stroke:#C6C6C6;stroke-width:0.25;stroke-miterlimit:10;}
	.st27{fill:url(#SVGID_00000169545724320821999610000008643463096978584992_);}
	.st28{fill:url(#SVGID_00000056389580059142121780000000819787812758969786_);}
	.st29{fill:url(#SVGID_00000080191644003217618820000010298144844945517231_);}
	.st30{fill:url(#SVGID_00000078041048691829894050000015562628535077696938_);}
	.st31{fill:url(#SVGID_00000099622274539336047020000001954914823962765988_);}
	.st32{fill:url(#SVGID_00000103950779110255419670000003337647587193723057_);}
	.st33{fill:url(#SVGID_00000083784691667985585610000002617361595176363941_);}
	.st34{fill:url(#SVGID_00000012466732505594147950000002494407196799923083_);}
	.st35{fill:url(#SVGID_00000088835763068890445120000012430271632814215070_);}
	.st36{fill:url(#SVGID_00000088097027911369935510000012194182348660253316_);}
	.st37{fill:url(#SVGID_00000093150821083832223400000016675565196536296096_);}
	.st38{fill:url(#SVGID_00000114767268826249918370000002146759597831436986_);}
	.st39{fill:url(#SVGID_00000115486723249643699390000012059337628548586163_);}
	.st40{fill:url(#SVGID_00000001649346641969862160000017606963920298056586_);}
	.st41{fill:url(#SVGID_00000061460194003940448780000014687333264929073837_);}
	.st42{fill:url(#SVGID_00000075862844873624356570000013424744430611787662_);}
	.st43{fill:url(#SVGID_00000039824371929620968240000013681999455130428043_);}
	.st44{fill:url(#SVGID_00000003790675666332479340000003711125532443073726_);}
	.st45{fill:url(#SVGID_00000154426858784808265260000009341279308898282934_);}
	.st46{fill:url(#SVGID_00000123440381406311248730000016695251065187020443_);}
	.st47{fill:url(#SVGID_00000085932907018762916850000017378079958560265098_);}
	.st48{fill:url(#SVGID_00000145050446734961645820000010726793083119424684_);}
	.st49{fill:url(#SVGID_00000021078168457297503460000016946393117930375836_);}
	.st50{fill:url(#SVGID_00000181771555402506082760000013147801926991680179_);}
	.st51{fill:url(#SVGID_00000083056156914440391560000001006061827319299208_);}
	.st52{fill:url(#SVGID_00000114774179574880607070000000470971584612645794_);}
	.st53{fill:url(#SVGID_00000052826691981438152800000016549755881664429735_);}
	.st54{fill:url(#SVGID_00000018232299124139365050000009810070836774612869_);}
	.st55{fill:url(#SVGID_00000031186605631577617040000008472205521657499295_);}
	.st56{fill:url(#SVGID_00000128458883898368403530000014407368428809773475_);}
	.st57{fill:url(#SVGID_00000110435977801555240010000012674524484107182991_);}
	.st58{fill:url(#SVGID_00000003075311144548667390000000256060138497786552_);}
	.st59{fill:url(#SVGID_00000136412708443472062600000015253610779533175687_);}
	.st60{fill:url(#SVGID_00000181048617870780087490000014562688684549215663_);}
	.st61{fill:#E8378C;}
	.st62{fill:url(#SVGID_00000078039168346567953570000000470992291436456873_);}
	.st63{fill:#0064A1;}
	.st64{fill:#322974;}
	.st65{fill:#63297D;}
	.st66{fill:#BE2E7E;}
	.st67{fill:#E94083;}
	.st68{fill:#EC5F7C;}
	.st69{fill:#008ABC;}
	.st70{fill:url(#SVGID_00000004530365169126418270000011058259701287539333_);}
	.st71{fill:url(#SVGID_00000173864958620913955500000014743295006213590695_);}
	.st72{fill:url(#SVGID_00000027568169307455277550000014225341111375023537_);}
	.st73{fill:url(#SVGID_00000096751964782811337940000018277121582734235791_);}
	.st74{fill:url(#SVGID_00000008850792678373491810000013979091417335473087_);}
	.st75{fill:url(#SVGID_00000142167974599620754790000015985604899948136369_);}
	.st76{fill:url(#SVGID_00000181072305760320611570000007782815063604506782_);}
	.st77{fill:url(#SVGID_00000099629212030097845230000002545497017633024415_);}
</style>
<g>
	<g>
		<g>
			<polygon class="st13" points="25,45.6 24.1,44.9 24.3,44.6 24.1,44.8 24.4,44.5 23.9,44.5 24.4,44.5 24.7,44 25,44.2 			"/>
		</g>
		<g>
			<polygon class="st13" points="35.1,49.5 35.1,49.2 35.1,49.5 35.1,49.3 35,49.5 35.1,49.1 35,49.5 35.1,49.1 35.1,48.4 
				35.3,48.5 			"/>
		</g>
		<g>
			<path class="st13" d="M22.5,56.3L21.8,56c-1.3-0.6-2.5-1.2-3.5-1.8c-4.7-2.7-8.1-6.5-9.9-10.8c-2.5-5.8-1.7-11.8-0.6-15.9
				c1-3.7,2.2-6.7,3.8-9.2c1.8-2.8,4.1-5.4,6.8-7.6c2.8-2.3,5.4-3.8,8.1-4.7c2.9-0.9,5.3-0.9,7.2,0c0.2,0.1,0.4,0.3,0.6,0.4
				l-0.7,0.8c-0.1-0.1-0.2-0.1-0.3-0.2c-0.7-0.3-1.5-0.5-2.4-0.6c-7.9,0.8-17.2,9.4-16.7,19C14.5,37.2,24.2,43.6,24.7,44l0.3,0.2
				l0,0.4c-0.3,1-2,6.2-2.4,10.9L22.5,56.3z M19.2,11.4c-0.1,0.1-0.2,0.1-0.2,0.2c-2.6,2.1-4.8,4.6-6.5,7.3
				c-1.5,2.4-2.7,5.3-3.7,8.9c-1,3.9-1.8,9.7,0.6,15.2c1.7,4.1,5,7.7,9.5,10.3c0.8,0.5,1.7,1,2.8,1.4c0.5-4.1,1.8-8.5,2.3-10
				C22,43.4,13.4,36.9,13,25.6C12.7,20.2,15.4,15.1,19.2,11.4z"/>
		</g>
		<g>
			<path class="st13" d="M41.5,59.8c-2.4,0-4.8-0.3-6.6-0.5c-0.1,0-0.3,0-0.4-0.1L34,59.3c-1.4-0.2-2.7-0.4-4.1-0.8l-0.4-0.1l0-0.4
				c-0.2-3.5-0.1-6.9,0.4-9.8c-2.7-1.1-4.8-2.5-5.8-3.3l-0.2-0.2v-0.9l0.2,0c0.5-1.3,1.2-2.7,1.9-4c3-5.7,7.3-10.7,12.2-14.6
				c5.4-4.2,12.1-7,18.8-7.8c3.4-0.4,6.2-0.3,8.7,0.3c2.5,0.6,4.4,1.7,5.7,3.3c4.3,5.1,3.4,10.2,2.2,14.9c-1.3,5.1-3.8,9-7.9,12.9
				c-4.3,4-9.2,7.2-14.3,9.1c-2.7,1-5.1,1.6-7.3,1.8C43.3,59.8,42.4,59.8,41.5,59.8z M33.7,58.1l0.8,0.1c0.2,0,0.3,0,0.5,0.1
				c2.5,0.3,6.1,0.6,9,0.4c2.2-0.2,4.5-0.8,7.1-1.7C56,55.1,60.8,52,65,48c3.9-3.7,6.3-7.6,7.6-12.4c1.2-4.6,2-9.2-2-14
				c-1.2-1.4-2.9-2.4-5.2-2.9c-2.4-0.6-5.1-0.6-8.3-0.3c-6.5,0.8-13,3.5-18.3,7.6c-4.8,3.8-8.9,8.7-11.9,14.3
				c-0.7,1.3-1.3,2.6-1.8,3.9c1,0.8,2.8,2,5,2.9c2.8-12.1,12.6-24.1,26.4-24.1c1.3,0,2.6,0.1,3.9,0.3c5.7,1,5.8,5.4,5.8,5.5v0.1
				c0.1,0.7,0.1,1.5,0,2.4c-0.4,3.6-1.9,6.9-4.3,9.5c-2,2.2-4.6,4-8,5.6c-5.8,2.7-12.1,3.8-18.1,3.1v0.1L35,49.5
				c-1.4-0.2-2.8-0.5-4-0.9c-0.5,2.7-0.6,5.8-0.4,9C31.6,57.8,32.7,58,33.7,58.1z M35.1,48.4l0.1,0c6,0.7,12.4-0.3,18.2-3
				c3.3-1.5,5.8-3.3,7.7-5.3c2.3-2.5,3.6-5.6,4-8.9c0.1-0.8,0.1-1.6,0-2.3L65,28.1c-0.3-1.1-1.3-3.1-4.8-3.7
				c-1.2-0.2-2.5-0.3-3.7-0.3c-13.3,0-22.8,11.7-25.4,23.4C32.4,47.9,33.7,48.2,35.1,48.4z"/>
		</g>
		<g>
			<path class="st13" d="M48.2,86.3L48.2,86.3c-8.4,0-16.3-3.8-21-10.2c-3.1-4.2-5-9.4-5.6-15.1c-0.2-1.8-0.2-3.7-0.1-5.6l0-0.8
				l0.7,0.3c2.2,1,4.9,1.8,7.9,2.5l0.4,0.1l0,0.4c0,0.2,0,0.5,0.1,0.7c0.3,3.6,1,11.1,13.1,15c0.9,0.3,2.8,0.7,3.8,0.9l0,0
				c1.6,0.4,3.3,0.6,4.9,0.6c5.3,0,10-2,13.1-5.6c1.6-1.8,2.9-4,3.8-6.5c0.5-1.4,0.9-2.8,1.2-4.2c0.2-0.9,0.3-1.9,0.4-2.8
				c0.1-0.8,0.2-1.5,0.3-2.3c0.2-1.1,1.1-4.8,4-4.6c1.7,0.1,3.1,1.6,3.1,3.5c0.6,8.7-1.8,16.9-6.9,22.9C65.8,82.1,57.5,86.1,49,86.3
				C48.7,86.3,48.5,86.3,48.2,86.3z M22.5,56.3c-0.1,1.6,0,3.2,0.2,4.6c0.6,5.5,2.5,10.5,5.4,14.6c4.5,6.1,12,9.8,20.1,9.8h0
				c0.3,0,0.5,0,0.8,0c8.2-0.2,16.3-4.1,21.5-10.4c4.9-5.8,7.2-13.6,6.6-22.1c0-1.2-0.8-2.4-2.1-2.5l-0.1,0c-2,0-2.6,3.1-2.7,3.8
				c-0.1,0.7-0.2,1.5-0.3,2.2c-0.1,0.9-0.2,1.9-0.4,2.9c-0.3,1.5-0.7,2.9-1.2,4.4c-1,2.6-2.3,4.9-4,6.8c-3.4,3.8-8.3,5.9-13.9,5.9
				c-1.6,0-3.3-0.2-4.9-0.5l-0.1,0c-0.3,0-2.8-0.5-4-0.9c-12.6-4.1-13.4-12.1-13.8-15.9l0-0.4C26.9,57.8,24.5,57.1,22.5,56.3z"/>
		</g>
		<g>
			<path class="st13" d="M24.6,45.4l-0.5-0.5c-2.4-2.2-4-5.1-4.6-8.2c-1.1-5.7,1.3-12.4,6.2-17.9c1-1.1,2.1-2,3.1-2.9
				c1.3-1.1,2.5-2.1,3.5-3.4c0.9-1.1,2.7-3.7,1-5.1l0.7-0.8c0.7,0.5,1,1.2,1.1,2c0.2,1.8-1.1,3.7-1.9,4.7c-1.1,1.4-2.4,2.5-3.7,3.5
				c-1,0.9-2.1,1.8-3,2.8c-4.7,5.2-7,11.6-6,17c0.5,2.9,2,5.5,4.2,7.5l0,0c0,0,0,0,0,0l0.4,0.4l-0.3,0.3L24.6,45.4z"/>
		</g>
		<g>
			<path class="st13" d="M24.4,45h-0.2l-0.2-0.1c-1-0.7-10.6-7.2-11.1-19.3C12.5,15.4,22.3,6.3,30.7,5.5c1.1,0.1,2,0.3,2.9,0.7
				c0.2,0.1,0.3,0.2,0.4,0.3c1.7,1.4,1.3,3.8-0.9,6.6c-1.1,1.4-2.4,2.5-3.7,3.5c-1,0.9-2.1,1.8-3,2.8c-4.7,5.2-7,11.6-5.9,17
				c0.6,3,2,5.6,4.2,7.6l1,0.9L24.4,45z M30.8,6.6c-7.9,0.8-17.2,9.4-16.7,19c0.3,7,3.9,12.2,6.9,15.2c-0.7-1.3-1.2-2.7-1.4-4.1
				c-1.1-5.7,1.3-12.4,6.2-17.9c1-1.1,2.1-2,3.1-2.9c1.3-1.1,2.5-2.1,3.5-3.4c0.9-1.1,2.7-3.7,1-5.1c-0.1-0.1-0.2-0.1-0.3-0.2
				C32.4,6.8,31.7,6.6,30.8,6.6z"/>
		</g>
		<g>
			<path class="st13" d="M24.4,45h-0.2l-0.2-0.1c-1-0.7-10.6-7.2-11.1-19.3C12.5,15.4,22.3,6.3,30.7,5.5c1.1,0.1,2,0.3,2.9,0.7
				c0.2,0.1,0.3,0.2,0.4,0.3c1.7,1.4,1.3,3.8-0.9,6.6c-1.1,1.4-2.4,2.5-3.7,3.5c-1,0.9-2.1,1.8-3,2.8c-4.7,5.2-7,11.6-5.9,17
				c0.6,3,2,5.6,4.2,7.6l1,0.9L24.4,45z M30.8,6.6c-7.9,0.8-17.2,9.4-16.7,19c0.3,7,3.9,12.2,6.9,15.2c-0.7-1.3-1.2-2.7-1.4-4.1
				c-1.1-5.7,1.3-12.4,6.2-17.9c1-1.1,2.1-2,3.1-2.9c1.3-1.1,2.5-2.1,3.5-3.4c0.9-1.1,2.7-3.7,1-5.1c-0.1-0.1-0.2-0.1-0.3-0.2
				C32.4,6.8,31.7,6.6,30.8,6.6z"/>
		</g>
		<g>
			<polygon class="st13" points="24.3,45 23.7,44.8 24.1,44.1 24.8,43.4 25,44.3 24.5,44.5 24.9,44.7 24.5,44.5 24.5,44.5 
				24.8,44.8 24.5,44.5 24.4,44.5 			"/>
		</g>
		<g>
			<polygon class="st13" points="24.3,45 23.7,44.8 24.1,44.1 24.8,43.4 25,44.3 24.5,44.5 24.9,44.7 24.5,44.5 24.5,44.5 
				24.8,44.8 24.5,44.5 24.4,44.5 			"/>
		</g>
		<g>
			<path class="st13" d="M35.6,49.5l-0.6,0c-1.6-0.2-3.2-0.6-4.7-1.1l-0.4-0.2l0.1-0.5c2.6-12.3,12.5-24.7,26.5-24.7
				c1.3,0,2.6,0.1,3.9,0.3c5.7,1,5.8,5.4,5.8,5.5v0.5l-0.8,0c-1.9-0.3-3.7-0.5-5.5-0.5c-11.9,0-21,7.6-24.3,20.3L35.6,49.5z
				 M31.1,47.5c1.2,0.4,2.4,0.7,3.7,0.9C38.3,35.5,47.7,27.8,60,27.8c1.7,0,3.4,0.1,5.1,0.4c-0.3-1.1-1.2-3.2-4.8-3.8
				c-1.2-0.2-2.5-0.3-3.7-0.3C43.2,24.1,33.7,35.8,31.1,47.5z"/>
		</g>
		<g>
			<polygon class="st13" points="35.7,49.6 34.5,49.4 34.6,48.9 34.6,48.3 35.2,48.4 35.8,48.4 35.7,49 			"/>
		</g>
		<g>
			<polygon class="st13" points="35.7,49.6 34.5,49.4 34.6,48.9 34.6,48.3 35.2,48.4 35.8,48.4 35.7,49 			"/>
		</g>
		<g>
			<path class="st13" d="M47.5,75.7l-0.1,0c-0.3-0.1-2.9-0.5-4.1-0.9c-12.6-4.1-13.4-12.1-13.8-15.9l-0.1-1.3h0.1v-0.1l0.6,0.1
				c1.4,0.3,2.7,0.5,4.1,0.7h0.5l0,0.5c0.9,11.9,11.6,15.5,12.8,15.9l0.1,0l-0.1,0.4L47.5,75.7z M30.6,58.7
				C30.6,58.7,30.6,58.7,30.6,58.7c0.3,3.5,1,10.6,11.8,14.6c-3.6-2.3-8-6.6-8.7-14.1C32.6,59.1,31.6,58.9,30.6,58.7z"/>
		</g>
		<g>
			<path class="st13" d="M30.6,59.4l-0.9-0.9c-3-0.7-5.7-1.5-7.9-2.5l-0.3-0.2l0-0.4c0.4-4.8,2.1-10.1,2.5-11.1l0.2-0.7l0.6,0.5
				c1,0.8,3.1,2.3,5.9,3.3l0.4,0.2L31,48c-0.6,3-0.8,6.4-0.5,10L30.6,59.4z M22.6,55.1c2,0.8,4.3,1.6,6.9,2.2
				c-0.2-3.2,0-6.4,0.5-9.1c-2.2-0.9-4-2-5.2-2.9C24.2,47.1,22.9,51.3,22.6,55.1z"/>
		</g>
		<g>
			<path class="st13" d="M30.6,59.4l-0.9-0.9c-3-0.7-5.7-1.5-7.9-2.5l-0.3-0.2l0-0.4c0.4-4.8,2.1-10.1,2.5-11.1l0.2-0.7l0.6,0.5
				c1,0.8,3.1,2.3,5.9,3.3l0.4,0.2L31,48c-0.6,3-0.8,6.4-0.5,10L30.6,59.4z M22.6,55.1c2,0.8,4.3,1.6,6.9,2.2
				c-0.2-3.2,0-6.4,0.5-9.1c-2.2-0.9-4-2-5.2-2.9C24.2,47.1,22.9,51.3,22.6,55.1z"/>
		</g>
		<g>
			<polygon class="st13" points="30,58.5 29.8,58.5 29.5,58.2 29.5,57.5 30.2,57.5 30.5,57.8 30.5,58.5 			"/>
		</g>
		<g>
			<polygon class="st13" points="30,58.5 29.8,58.5 29.5,58.2 29.5,57.5 30.2,57.5 30.5,57.8 30.5,58.5 			"/>
		</g>
		<g>
			<polygon class="st13" points="30,58.5 29.8,58.5 29.5,58.2 29.5,57.5 30.2,57.5 30.5,57.8 30.5,58.5 			"/>
		</g>
	</g>
	<g>
		<g>
			<path class="st13" d="M106.3,85H85.7V49.2h20.6v6.2h-13v7.9h12.1v6.2H93.3v9.2h13V85z"/>
			<path class="st13" d="M117.2,85l-10.4-27.9h7.8l5.3,15.9c0.6,2,1,3.9,1.1,5.7h0.1c0.1-1.6,0.4-3.5,1.1-5.7l5.3-15.9h7.8L124.8,85
				H117.2z"/>
			<path class="st13" d="M154.5,85l-1.4-3.7h-0.2c-1.3,1.6-2.6,2.7-3.9,3.3c-1.3,0.6-3.1,0.9-5.2,0.9c-2.6,0-4.7-0.8-6.2-2.3
				c-1.5-1.5-2.3-3.6-2.3-6.4c0-2.9,1-5.1,3.1-6.4c2-1.4,5.1-2.1,9.2-2.3l4.8-0.1v-1.2c0-2.8-1.4-4.2-4.3-4.2c-2.2,0-4.8,0.7-7.7,2
				l-2.5-5c3.2-1.6,6.6-2.5,10.5-2.5c3.7,0,6.5,0.8,8.5,2.4c2,1.6,2.9,4,2.9,7.3V85H154.5z M152.3,72.3l-2.9,0.1
				c-2.2,0.1-3.8,0.5-4.9,1.2c-1.1,0.7-1.6,1.8-1.6,3.3c0,2.1,1.2,3.2,3.6,3.2c1.7,0,3.1-0.5,4.2-1.5c1-1,1.6-2.3,1.6-4V72.3z"/>
			<g>
				<path class="st13" d="M194.5,66.7c0,6-1.6,10.6-4.7,13.6c-3.2,3.1-7.8,4.6-13.9,4.6h-8.6V49.2h9.7c5.7,0,10.1,1.5,13,4.5
					C193,56.6,194.5,61,194.5,66.7z M191.8,66.8c0-5.1-1.3-9-3.9-11.6c-2.6-2.6-6.4-3.9-11.5-3.9h-6.6v31.4h5.9
					C186.4,82.8,191.8,77.5,191.8,66.8z"/>
				<path class="st13" d="M208.7,57c1.1,0,2.3,0.1,3.6,0.4l-0.5,2.4c-1.1-0.3-2.3-0.4-3.5-0.4c-2.3,0-4.1,1-5.6,3
					c-1.5,2-2.2,4.5-2.2,7.5V85h-2.4V57.5h2.1l0.2,4.9h0.2c1.1-2,2.3-3.4,3.5-4.3C205.5,57.4,207,57,208.7,57z"/>
				<path class="st13" d="M218.6,85h-2.4V57h2.4V85z"/>
				<path class="st13" d="M232.6,85l-10.3-27.9h2.5l6.9,18.9c0.9,2.4,1.6,4.5,2.1,6.4h0.1c0.7-2.3,1.4-4.5,2.1-6.4l6.9-18.9h2.5
					L235.1,85H232.6z"/>
				<path class="st13" d="M257.7,85.1c-3.9,0-6.9-1.2-9.1-3.6c-2.2-2.4-3.2-5.8-3.2-10.2c0-4.3,1-7.8,3.1-10.4
					c2.1-2.6,4.9-3.9,8.5-3.9c3.1,0,5.6,1.1,7.4,3.3c1.8,2.2,2.7,5.2,2.7,9.1v2h-19.2c0,3.7,0.9,6.6,2.6,8.5c1.7,2,4.1,2.9,7.2,2.9
					c1.5,0,2.9-0.1,4-0.3c1.2-0.2,2.6-0.7,4.4-1.4v2.2c-1.5,0.7-2.9,1.1-4.2,1.4C260.6,85,259.2,85.1,257.7,85.1z M257,59.2
					c-2.6,0-4.6,0.9-6.2,2.6c-1.6,1.7-2.5,4.2-2.7,7.4h16.5c0-3.1-0.7-5.6-2-7.4C261.2,60.1,259.3,59.2,257,59.2z"/>
				<path class="st13" d="M218.7,54.1c0.3-0.3,0.5-0.7,0.5-1.2c0-1-0.8-1.8-1.8-1.8c-1,0-1.8,0.8-1.8,1.8c0,0.5,0.2,0.9,0.5,1.2h0
					l0.1,0.1c0,0,0,0,0,0l1.3,1.4l1.3-1.4C218.7,54.2,218.7,54.2,218.7,54.1L218.7,54.1L218.7,54.1z"/>
			</g>
		</g>
	</g>
</g>
</svg>
